<?xml version="1.0" encoding="UTF-8"?>
<svg xmlns="http://www.w3.org/2000/svg" xmlns:xlink="http://www.w3.org/1999/xlink" width="10px" height="3px" viewBox="0 0 375 374.999991" version="1.2">
<defs>
<clipPath id="clip1">
  <path d="M 139 122.25 L 251 122.25 L 251 249 L 139 249 Z M 139 122.25 "/>
</clipPath>
</defs>
<g id="surface1">
<path style=" stroke:none;fill-rule:nonzero;fill:rgb(92.158508%,66.668701%,19.999695%);fill-opacity:1;" d="M 155.28125 151.960938 C 155.28125 151.960938 148.308594 138.386719 139.199219 136.484375 C 130.085938 134.574219 118.671875 135.808594 113.550781 141.183594 C 113.550781 141.183594 101.460938 191.980469 160.992188 213.4375 C 160.992188 213.4375 160.609375 206.785156 157.3125 198.800781 C 156.980469 198.007812 113.230469 178.964844 125.28125 146.886719 C 125.28125 146.886719 139.199219 136.484375 151.613281 158.867188 "/>
<path style=" stroke:none;fill-rule:nonzero;fill:rgb(80.389404%,77.249146%,77.249146%);fill-opacity:1;" d="M 155.609375 200.980469 L 155.601562 200.972656 C 155.605469 200.976562 155.613281 200.980469 155.621094 200.984375 C 155.632812 200.996094 155.640625 201 155.609375 200.980469 Z M 163.914062 213.269531 C 163.871094 212.695312 163.820312 212.285156 163.761719 211.8125 C 163.703125 211.347656 163.632812 210.898438 163.566406 210.445312 C 163.417969 209.542969 163.25 208.652344 163.058594 207.765625 C 162.679688 205.996094 162.21875 204.25 161.660156 202.53125 C 161.378906 201.675781 161.089844 200.820312 160.765625 199.972656 C 160.609375 199.550781 160.449219 199.128906 160.273438 198.714844 L 160.015625 198.085938 L 159.886719 197.773438 L 159.878906 197.753906 C 159.910156 197.835938 159.824219 197.59375 159.675781 197.351562 C 159.585938 197.175781 159.285156 196.839844 159.296875 196.863281 L 159.152344 196.722656 L 159.015625 196.601562 L 158.945312 196.550781 L 158.820312 196.453125 C 158.699219 196.371094 158.617188 196.320312 158.539062 196.273438 C 158.019531 195.964844 157.679688 195.792969 157.28125 195.582031 L 156.152344 194.980469 L 153.9375 193.777344 C 151 192.164062 148.148438 190.414062 145.40625 188.515625 C 142.65625 186.632812 140.023438 184.59375 137.578125 182.367188 C 135.125 180.140625 132.894531 177.699219 130.914062 175.085938 C 128.949219 172.464844 127.304688 169.613281 126.164062 166.554688 C 125.03125 163.503906 124.355469 160.265625 124.328125 156.960938 C 124.300781 153.714844 124.816406 150.4375 125.789062 147.261719 C 126.777344 146.582031 127.957031 146.023438 129.136719 145.632812 C 130.398438 145.230469 131.710938 144.972656 133.039062 144.945312 C 135.695312 144.851562 138.359375 145.582031 140.699219 146.921875 C 143.046875 148.257812 145.105469 150.097656 146.894531 152.160156 C 148.675781 154.226562 150.226562 156.5 151.613281 158.867188 C 150.320312 156.445312 148.875 154.09375 147.144531 151.941406 C 145.417969 149.800781 143.398438 147.851562 141.023438 146.378906 C 138.65625 144.902344 135.867188 144.015625 133.023438 144.007812 C 131.605469 144 130.191406 144.226562 128.824219 144.617188 C 127.457031 145.03125 126.164062 145.574219 124.921875 146.40625 L 124.800781 146.488281 L 124.71875 146.675781 C 123.320312 149.867188 122.34375 153.3125 122.070312 156.878906 C 121.792969 160.433594 122.140625 164.085938 123.171875 167.546875 C 124.1875 171.011719 125.777344 174.285156 127.714844 177.304688 C 129.644531 180.332031 131.984375 183.058594 134.46875 185.589844 C 136.96875 188.121094 139.664062 190.433594 142.46875 192.578125 C 145.289062 194.707031 148.234375 196.644531 151.242188 198.457031 C 151.992188 198.910156 152.753906 199.34375 153.511719 199.773438 L 154.636719 200.414062 C 154.769531 200.484375 154.910156 200.5625 155.039062 200.640625 L 155.082031 200.742188 C 155.226562 201.117188 155.363281 201.5 155.496094 201.886719 C 155.765625 202.652344 156.007812 203.429688 156.242188 204.207031 C 156.691406 205.746094 157.082031 207.304688 157.394531 208.871094 C 155.371094 208.019531 153.371094 207.125 151.417969 206.148438 C 148.003906 204.429688 144.699219 202.523438 141.554688 200.402344 C 138.4375 198.246094 135.460938 195.894531 132.742188 193.277344 C 130.015625 190.679688 127.542969 187.820312 125.363281 184.761719 C 120.988281 178.644531 117.910156 171.625 116.195312 164.230469 C 115.34375 160.535156 114.824219 156.742188 114.675781 152.925781 C 114.597656 151.023438 114.605469 149.109375 114.683594 147.199219 C 114.726562 146.246094 114.792969 145.296875 114.886719 144.347656 C 114.960938 143.574219 115.070312 142.777344 115.183594 142.039062 C 116.328125 140.90625 117.773438 139.980469 119.359375 139.277344 C 121.117188 138.492188 123.027344 137.949219 124.980469 137.570312 C 128.894531 136.816406 133 136.71875 137.015625 137.207031 C 138.015625 137.335938 139.046875 137.488281 139.9375 137.71875 C 140.863281 137.960938 141.769531 138.332031 142.644531 138.78125 C 144.402344 139.691406 146.027344 140.925781 147.523438 142.316406 C 150.503906 145.121094 153.085938 148.417969 155.28125 151.960938 C 154.40625 150.0625 153.367188 148.246094 152.230469 146.480469 C 151.09375 144.714844 149.835938 143.019531 148.402344 141.453125 C 146.976562 139.878906 145.378906 138.421875 143.527344 137.246094 C 142.601562 136.65625 141.605469 136.15625 140.53125 135.792969 C 139.433594 135.421875 138.40625 135.230469 137.351562 135.027344 C 133.140625 134.269531 128.816406 134.109375 124.507812 134.679688 C 122.355469 134.972656 120.207031 135.492188 118.117188 136.304688 C 116.039062 137.121094 113.992188 138.265625 112.28125 139.972656 L 111.96875 140.285156 L 111.84375 140.773438 C 111.570312 141.863281 111.386719 142.828125 111.210938 143.851562 C 111.042969 144.859375 110.902344 145.871094 110.789062 146.890625 C 110.550781 148.917969 110.441406 150.953125 110.429688 152.996094 C 110.394531 157.074219 110.742188 161.164062 111.46875 165.203125 C 112.921875 173.277344 116.085938 181.117188 120.734375 187.964844 C 125.371094 194.832031 131.441406 200.65625 138.1875 205.304688 C 141.574219 207.625 145.121094 209.679688 148.773438 211.476562 C 152.429688 213.277344 156.179688 214.851562 160.003906 216.1875 L 164.234375 217.671875 L 163.914062 213.269531 "/>
<path style=" stroke:none;fill-rule:nonzero;fill:rgb(92.158508%,66.668701%,19.999695%);fill-opacity:1;" d="M 224.703125 239.996094 C 236.65625 210.667969 248.308594 142.824219 248.867188 136.238281 C 248.921875 135.566406 248.660156 134.910156 248.160156 134.449219 C 235.152344 122.585938 197.566406 123.472656 197.566406 123.472656 C 160.402344 123.167969 145.824219 130.945312 142.21875 133.351562 C 141.617188 133.75 141.257812 134.417969 141.25 135.140625 C 140.921875 167.351562 159.296875 237.910156 159.296875 237.910156 C 196.148438 252.769531 224.703125 239.996094 224.703125 239.996094 "/>
<g clip-path="url(#clip1)" clip-rule="nonzero">
<path style=" stroke:none;fill-rule:nonzero;fill:rgb(80.389404%,77.249146%,77.249146%);fill-opacity:1;" d="M 246.769531 136.054688 C 246.769531 136.070312 246.773438 136.019531 246.761719 136.160156 C 246.589844 137.695312 246.320312 139.402344 246.066406 141.046875 C 244.996094 147.691406 243.78125 154.339844 242.515625 160.96875 C 241.246094 167.601562 239.898438 174.21875 238.496094 180.824219 C 237.101562 187.425781 235.648438 194.019531 234.070312 200.574219 C 232.496094 207.132812 230.835938 213.664062 229.015625 220.136719 C 228.101562 223.371094 227.136719 226.585938 226.113281 229.773438 C 225.578125 231.363281 225.074219 232.960938 224.503906 234.527344 L 223.707031 236.75 C 223.539062 237.226562 223.402344 237.71875 223.273438 238.234375 L 222.933594 238.324219 L 221.96875 238.5625 C 221.316406 238.714844 220.664062 238.871094 220.007812 239.011719 C 218.6875 239.28125 217.367188 239.554688 216.042969 239.773438 C 214.710938 239.980469 213.390625 240.226562 212.050781 240.386719 C 211.390625 240.480469 210.71875 240.542969 210.050781 240.625 C 209.390625 240.714844 208.714844 240.773438 208.050781 240.84375 C 206.714844 240.976562 205.375 241.074219 204.035156 241.140625 C 203.367188 241.199219 202.699219 241.226562 202.027344 241.253906 C 201.363281 241.289062 200.691406 241.3125 200.023438 241.316406 C 197.34375 241.355469 194.667969 241.367188 191.996094 241.210938 C 189.324219 241.0625 186.660156 240.84375 184 240.519531 C 182.667969 240.375 181.34375 240.179688 180.011719 240.011719 C 178.6875 239.808594 177.363281 239.582031 176.042969 239.351562 C 174.71875 239.113281 173.386719 238.890625 172.074219 238.585938 L 170.089844 238.179688 L 168.109375 237.726562 C 166.78125 237.453125 165.476562 237.089844 164.144531 236.777344 C 163.472656 236.636719 162.824219 236.4375 162.160156 236.273438 C 161.835938 236.195312 161.511719 236.121094 161.195312 236.039062 C 158.015625 223.398438 155.125 210.636719 152.390625 197.878906 C 151 191.273438 149.683594 184.652344 148.480469 178.019531 C 147.25 171.394531 146.144531 164.75 145.230469 158.089844 C 144.316406 151.433594 143.605469 144.75 143.390625 138.113281 L 143.363281 135.628906 L 143.355469 135.152344 L 143.355469 135.128906 C 143.363281 135.113281 143.367188 135.101562 143.375 135.089844 L 143.808594 134.808594 C 143.96875 134.707031 144.125 134.597656 144.300781 134.5 C 144.636719 134.304688 144.964844 134.09375 145.320312 133.914062 L 146.375 133.359375 L 147.46875 132.839844 C 150.402344 131.484375 153.519531 130.382812 156.703125 129.484375 C 157.492188 129.234375 158.292969 129.023438 159.097656 128.816406 C 159.90625 128.613281 160.703125 128.386719 161.515625 128.203125 C 163.148438 127.859375 164.761719 127.453125 166.410156 127.171875 L 168.878906 126.71875 C 169.703125 126.570312 170.53125 126.46875 171.363281 126.339844 L 173.847656 125.96875 L 176.347656 125.683594 L 178.851562 125.390625 L 181.363281 125.171875 C 183.039062 125.03125 184.714844 124.890625 186.394531 124.832031 C 188.078125 124.765625 189.757812 124.660156 191.445312 124.632812 L 196.511719 124.585938 C 203.242188 124.492188 209.976562 124.832031 216.632812 125.738281 C 223.265625 126.613281 229.878906 127.917969 236.058594 130.121094 C 239.128906 131.226562 242.105469 132.5625 244.65625 134.328125 C 245.296875 134.765625 245.898438 135.234375 246.457031 135.738281 L 246.667969 135.925781 C 246.695312 135.949219 246.761719 136.007812 246.75 136 L 246.753906 136.003906 C 246.761719 136.011719 246.765625 136.019531 246.769531 136.027344 C 246.773438 136.035156 246.769531 136.042969 246.769531 136.046875 C 246.769531 136.046875 246.769531 136.054688 246.769531 136.054688 Z M 250.976562 136 C 250.972656 135.792969 250.953125 135.582031 250.917969 135.378906 C 250.851562 134.964844 250.722656 134.566406 250.539062 134.191406 C 250.359375 133.820312 250.121094 133.472656 249.839844 133.171875 C 249.773438 133.09375 249.695312 133.023438 249.625 132.953125 C 249.535156 132.867188 249.523438 132.863281 249.46875 132.816406 L 249.203125 132.585938 C 248.484375 131.972656 247.738281 131.421875 246.96875 130.914062 C 243.90625 128.886719 240.585938 127.566406 237.25 126.523438 C 233.90625 125.5 230.511719 124.792969 227.121094 124.238281 C 223.726562 123.691406 220.320312 123.300781 216.917969 123.023438 C 210.105469 122.523438 203.289062 122.257812 196.492188 122.375 C 189.71875 122.3125 182.898438 122.515625 176.09375 122.960938 L 173.542969 123.144531 L 170.992188 123.402344 C 170.140625 123.492188 169.289062 123.570312 168.441406 123.671875 L 165.894531 124.015625 C 164.191406 124.214844 162.5 124.546875 160.808594 124.820312 C 159.957031 124.96875 159.117188 125.164062 158.273438 125.332031 C 157.429688 125.5 156.582031 125.675781 155.746094 125.898438 C 152.390625 126.722656 149.046875 127.714844 145.804688 129.136719 L 144.589844 129.679688 L 143.386719 130.277344 C 142.984375 130.46875 142.589844 130.707031 142.191406 130.925781 C 141.992188 131.03125 141.792969 131.152344 141.59375 131.277344 L 141.152344 131.550781 C 141.101562 131.582031 141.054688 131.605469 140.960938 131.675781 C 140.273438 132.15625 139.738281 132.839844 139.441406 133.613281 C 139.289062 134 139.195312 134.410156 139.160156 134.820312 L 139.144531 135.125 L 139.144531 135.609375 L 139.152344 138.203125 C 139.3125 145.105469 139.976562 151.90625 140.835938 158.667969 C 141.695312 165.425781 142.75 172.152344 143.925781 178.84375 C 145.121094 185.53125 146.425781 192.195312 147.8125 198.839844 C 150.574219 212.132812 153.695312 225.320312 157.085938 238.484375 L 157.292969 239.386719 L 158.445312 240.03125 C 163.460938 242.835938 168.898438 244.882812 174.496094 246.371094 C 180.097656 247.808594 185.882812 248.683594 191.6875 248.824219 C 194.589844 248.914062 197.5 248.882812 200.394531 248.632812 C 201.113281 248.582031 201.839844 248.515625 202.5625 248.441406 C 203.28125 248.363281 204.003906 248.296875 204.722656 248.195312 C 206.160156 248 207.589844 247.757812 209.019531 247.488281 C 210.441406 247.222656 211.859375 246.917969 213.261719 246.542969 C 213.964844 246.363281 214.667969 246.175781 215.359375 245.972656 C 216.0625 245.78125 216.75 245.558594 217.441406 245.335938 C 218.816406 244.863281 220.191406 244.398438 221.53125 243.824219 C 222.203125 243.542969 222.871094 243.253906 223.535156 242.941406 L 224.53125 242.449219 L 225.027344 242.191406 L 225.28125 242.054688 L 225.40625 241.984375 L 225.675781 241.847656 C 225.871094 241.734375 226.054688 241.597656 226.203125 241.449219 C 226.675781 240.5 227.132812 239.511719 227.542969 238.511719 L 227.835938 237.78125 L 228.0625 237.179688 L 228.507812 235.972656 C 229.121094 234.367188 229.65625 232.746094 230.210938 231.125 C 231.289062 227.882812 232.292969 224.621094 233.246094 221.347656 C 235.167969 214.8125 236.84375 208.226562 238.433594 201.621094 C 240.027344 195.015625 241.496094 188.386719 242.902344 181.75 C 244.296875 175.113281 245.582031 168.449219 246.820312 161.78125 C 248.046875 155.105469 249.21875 148.429688 250.253906 141.699219 C 250.503906 139.996094 250.761719 138.363281 250.953125 136.53125 C 250.960938 136.457031 250.980469 136.199219 250.976562 136 "/>
</g>
<path style=" stroke:none;fill-rule:nonzero;fill:rgb(63.919067%,64.709473%,65.489197%);fill-opacity:1;" d="M 237.203125 141.292969 C 239.625 140.261719 240.984375 139.140625 240.984375 137.988281 C 240.984375 133.253906 225.71875 127.3125 200.027344 127.3125 C 174.339844 127.3125 146.050781 133.574219 146.050781 138.304688 C 146.050781 139.683594 147.824219 140.984375 150.957031 142.132812 C 160.160156 138.390625 180.820312 134.886719 200.027344 134.886719 C 218.230469 134.886719 231.191406 137.875 237.203125 141.292969 "/>
<path style=" stroke:none;fill-rule:nonzero;fill:rgb(34.899902%,19.219971%,9.01947%);fill-opacity:1;" d="M 237.203125 141.292969 C 231.191406 137.875 218.230469 134.886719 200.027344 134.886719 C 180.820312 134.886719 160.160156 138.390625 150.957031 142.132812 C 158.59375 144.945312 174.351562 146.875 192.566406 146.875 C 211.988281 146.875 229.707031 144.496094 237.203125 141.292969 "/>
<path style=" stroke:none;fill-rule:nonzero;fill:rgb(80.389404%,77.249146%,77.249146%);fill-opacity:1;" d="M 148.101562 135.949219 C 147.75 136.300781 147.441406 136.667969 147.203125 137.027344 C 146.972656 137.386719 146.875 137.773438 146.964844 137.945312 C 147.078125 138.21875 147.75 138.644531 148.507812 138.949219 C 150.054688 139.554688 151.824219 140.082031 153.621094 140.515625 C 157.210938 141.394531 160.871094 142.117188 164.539062 142.773438 C 171.871094 144.09375 179.292969 145.078125 186.753906 145.597656 C 194.214844 146.121094 201.710938 146.226562 209.199219 145.910156 C 216.6875 145.597656 224.164062 144.851562 231.589844 143.660156 C 227.917969 144.46875 224.21875 145.175781 220.5 145.765625 C 216.773438 146.328125 213.027344 146.753906 209.273438 147.085938 C 201.761719 147.742188 194.199219 147.859375 186.648438 147.613281 C 179.101562 147.34375 171.550781 146.710938 164.066406 145.503906 C 160.332031 144.867188 156.613281 144.109375 152.941406 143.066406 C 152.019531 142.804688 151.101562 142.527344 150.179688 142.210938 C 149.253906 141.886719 148.320312 141.496094 147.433594 140.921875 C 146.988281 140.625 146.542969 140.292969 146.148438 139.824219 C 145.949219 139.59375 145.761719 139.304688 145.625 138.976562 C 145.488281 138.648438 145.425781 138.234375 145.503906 137.855469 C 145.660156 137.070312 146.179688 136.648438 146.640625 136.394531 C 147.109375 136.136719 147.597656 135.992188 148.101562 135.949219 "/>
</g>
</svg>
