<?xml version="1.0" encoding="UTF-8"?>
<svg xmlns="http://www.w3.org/2000/svg" xmlns:xlink="http://www.w3.org/1999/xlink" width="100pt" height="100pt" viewBox="0 0 375 374.999991" version="1.2">
<defs>
<clipPath id="clip1">
  <path d="M 132.820312 125.761719 L 231.40625 125.761719 L 231.40625 248.339844 L 132.820312 248.339844 Z M 132.820312 125.761719 "/>
</clipPath>
<clipPath id="clip2">
  <path d="M 126.808594 108 L 239.855469 108 L 239.855469 130.972656 L 126.808594 130.972656 Z M 126.808594 108 "/>
</clipPath>
</defs>
<g id="surface1">
<rect x="0" y="0" width="375" height="374.999991" style="fill:rgb(43.139648%,36.859131%,36.859131%);fill-opacity:1;stroke:none;"/>
<path style=" stroke:none;fill-rule:nonzero;fill:rgb(56.469727%,29.019165%,19.999695%);fill-opacity:1;" d="M 143.714844 109.078125 C 145.140625 106.957031 143.871094 103.566406 145.773438 101.859375 C 146.726562 101.007812 148.121094 100.945312 149.398438 100.945312 C 170.953125 100.910156 192.453125 105.355469 213.949219 103.734375 C 216.746094 103.523438 220.339844 103.679688 221.3125 106.3125 C 222.046875 108.292969 220.351562 110.214844 221.824219 111.734375 "/>
<path style=" stroke:none;fill-rule:nonzero;fill:rgb(0%,0%,0%);fill-opacity:1;" d="M 145.039062 109.855469 C 146.332031 107.597656 145.152344 102.941406 148.289062 102.515625 C 151.871094 102.027344 155.921875 102.570312 159.523438 102.753906 C 167.578125 103.171875 175.605469 103.980469 183.640625 104.632812 C 191.652344 105.285156 199.691406 105.789062 207.734375 105.582031 C 210.898438 105.5 214.535156 104.707031 217.664062 105.382812 C 219.640625 105.808594 220.066406 106.855469 219.808594 108.789062 C 219.625 110.175781 219.621094 111.347656 220.496094 112.507812 C 221.671875 114.070312 224.34375 112.539062 223.152344 110.957031 C 222.339844 109.878906 223.09375 108.464844 223.023438 107.195312 C 222.960938 106.089844 222.550781 105.046875 221.804688 104.222656 C 220.296875 102.546875 217.894531 102.164062 215.746094 102.132812 C 212.566406 102.09375 209.367188 102.492188 206.179688 102.539062 C 202.679688 102.589844 199.183594 102.511719 195.6875 102.355469 C 181.535156 101.71875 167.464844 99.753906 153.292969 99.449219 C 150.65625 99.390625 146.828125 98.765625 144.6875 100.773438 C 142.472656 102.851562 143.742188 105.929688 142.386719 108.300781 C 141.402344 110.023438 144.054688 111.574219 145.039062 109.855469 "/>
<path style=" stroke:none;fill-rule:nonzero;fill:rgb(89.019775%,51.759338%,58.428955%);fill-opacity:1;" d="M 230.15625 128.394531 C 198.894531 127.621094 165.339844 127.886719 134.082031 127.113281 C 138.945312 164.574219 145.359375 201.828125 153.304688 238.742188 C 153.539062 239.84375 153.832031 241.035156 154.710938 241.730469 C 155.519531 242.371094 158.113281 243.484375 159.117188 243.722656 C 175.722656 247.667969 191.621094 248.78125 207.75 244.261719 C 208.769531 243.980469 209.542969 243.140625 209.757812 242.101562 C 217.609375 203.914062 224.214844 166.976562 230.15625 128.394531 "/>
<g clip-path="url(#clip1)" clip-rule="nonzero">
<path style=" stroke:none;fill-rule:nonzero;fill:rgb(0%,0%,0%);fill-opacity:1;" d="M 230.15625 127.242188 C 198.136719 126.457031 166.101562 126.746094 134.082031 125.960938 C 133.515625 125.949219 132.847656 126.503906 132.925781 127.113281 C 135.496094 146.855469 138.476562 166.539062 141.894531 186.152344 C 143.605469 195.96875 145.425781 205.769531 147.351562 215.546875 C 148.335938 220.566406 149.351562 225.578125 150.398438 230.582031 C 150.878906 232.894531 151.367188 235.203125 151.863281 237.511719 C 152.238281 239.261719 152.46875 241.289062 153.894531 242.542969 C 156.347656 244.703125 160.355469 245.226562 163.390625 245.851562 C 167.976562 246.796875 172.609375 247.523438 177.269531 247.945312 C 186.566406 248.789062 195.984375 248.3125 205.082031 246.148438 C 206.695312 245.761719 208.667969 245.542969 209.871094 244.277344 C 211.234375 242.847656 211.285156 240.378906 211.660156 238.542969 C 212.65625 233.667969 213.632812 228.792969 214.59375 223.917969 C 216.5 214.242188 218.34375 204.558594 220.121094 194.863281 C 224.160156 172.863281 227.859375 150.804688 231.265625 128.703125 C 231.492188 127.25 229.269531 126.625 229.042969 128.089844 C 223.335938 165.109375 216.777344 202 209.277344 238.699219 C 209.0625 239.757812 209.011719 241.191406 208.507812 242.136719 C 207.882812 243.3125 206.398438 243.445312 205.210938 243.742188 C 203.003906 244.289062 200.773438 244.742188 198.527344 245.09375 C 193.96875 245.8125 189.34375 246.097656 184.730469 246.035156 C 180.074219 245.972656 175.421875 245.554688 170.820312 244.855469 C 166.726562 244.230469 162.203125 243.71875 158.316406 242.246094 C 156.507812 241.5625 155.101562 240.972656 154.542969 238.992188 C 153.921875 236.804688 153.574219 234.503906 153.105469 232.28125 C 152.136719 227.660156 151.1875 223.035156 150.261719 218.40625 C 148.414062 209.148438 146.660156 199.871094 145.007812 190.574219 C 141.25 169.503906 137.996094 148.339844 135.234375 127.113281 C 134.851562 127.5 134.464844 127.882812 134.082031 128.265625 C 166.101562 129.054688 198.136719 128.761719 230.15625 129.546875 C 231.640625 129.585938 231.640625 127.277344 230.15625 127.242188 "/>
</g>
<path style=" stroke:none;fill-rule:nonzero;fill:rgb(56.469727%,29.019165%,19.999695%);fill-opacity:1;" d="M 135.371094 109.546875 C 132.777344 114.191406 130.03125 120.535156 128.359375 125.671875 C 165.035156 125.039062 201.738281 126.171875 238.308594 129.070312 C 234.699219 123.957031 232.28125 117.984375 231.304688 111.78125 C 198.667969 111.824219 167.972656 111.183594 135.371094 109.546875 "/>
<g clip-path="url(#clip2)" clip-rule="nonzero">
<path style=" stroke:none;fill-rule:nonzero;fill:rgb(0%,0%,0%);fill-opacity:1;" d="M 134.046875 108.769531 C 131.152344 114.015625 128.753906 119.578125 126.878906 125.265625 C 126.5625 126.207031 127.398438 127.226562 128.359375 127.210938 C 156.929688 126.726562 185.515625 127.292969 214.042969 128.945312 C 222.136719 129.410156 230.226562 129.96875 238.308594 130.609375 C 239.433594 130.695312 240.277344 129.21875 239.632812 128.292969 C 236.101562 123.191406 233.804688 117.492188 232.789062 111.371094 C 232.679688 110.714844 231.929688 110.242188 231.304688 110.242188 C 199.3125 110.28125 167.328125 109.605469 135.371094 108.011719 C 133.394531 107.910156 133.398438 110.988281 135.371094 111.085938 C 167.328125 112.679688 199.3125 113.355469 231.304688 113.316406 C 230.8125 112.941406 230.316406 112.566406 229.824219 112.1875 C 230.878906 118.542969 233.3125 124.550781 236.980469 129.847656 C 237.421875 129.074219 237.867188 128.304688 238.308594 127.53125 C 209.820312 125.285156 181.253906 124.085938 152.679688 123.972656 C 144.570312 123.941406 136.464844 124 128.359375 124.136719 C 128.851562 124.785156 129.347656 125.433594 129.839844 126.082031 C 131.640625 120.640625 133.929688 115.339844 136.699219 110.324219 C 137.65625 108.589844 135.003906 107.039062 134.046875 108.769531 "/>
</g>
<path style=" stroke:none;fill-rule:nonzero;fill:rgb(100%,74.119568%,34.899902%);fill-opacity:1;" d="M 135.015625 152.46875 C 165.941406 158.109375 197.335938 159.648438 228.660156 157.054688 C 226.824219 174.414062 223.070312 198.597656 219.675781 215.5625 C 194.84375 220.828125 171.015625 217.449219 146 211.441406 C 145.234375 211.257812 144.386719 211.191406 143.828125 210.445312 C 143.324219 209.769531 143.152344 208.746094 143.003906 207.777344 C 140.085938 188.507812 136.335938 172.59375 135.09375 152.890625 "/>
<path style=" stroke:none;fill-rule:nonzero;fill:rgb(0%,0%,0%);fill-opacity:1;" d="M 134.621094 153.90625 C 165.625 159.527344 197.253906 161.109375 228.660156 158.542969 C 228.164062 158.046875 227.667969 157.550781 227.171875 157.054688 C 225.097656 176.527344 222.066406 195.960938 218.238281 215.164062 C 218.585938 214.820312 218.933594 214.472656 219.277344 214.125 C 201.773438 217.777344 183.851562 217.132812 166.296875 214.15625 C 161.953125 213.417969 157.632812 212.554688 153.328125 211.605469 C 151.269531 211.152344 149.21875 210.675781 147.167969 210.191406 C 146.332031 209.996094 145.253906 209.945312 144.800781 209.097656 C 144.332031 208.226562 144.359375 206.820312 144.210938 205.867188 C 142.949219 197.726562 141.445312 189.625 140.089844 181.496094 C 138.503906 172.011719 137.207031 162.492188 136.585938 152.890625 C 136.460938 150.984375 133.484375 150.972656 133.605469 152.890625 C 134.761719 170.757812 138.453125 188.253906 141.222656 205.90625 C 141.488281 207.617188 141.523438 209.71875 142.542969 211.195312 C 143.574219 212.695312 145.515625 212.863281 147.148438 213.246094 C 151.726562 214.328125 156.324219 215.332031 160.945312 216.207031 C 170.058594 217.933594 179.285156 219.183594 188.5625 219.550781 C 199.132812 219.972656 209.710938 219.160156 220.070312 217 C 220.542969 216.898438 221.015625 216.433594 221.113281 215.957031 C 224.992188 196.492188 228.046875 176.789062 230.148438 157.054688 C 230.230469 156.296875 229.402344 155.503906 228.660156 155.5625 C 197.527344 158.105469 166.152344 156.605469 135.414062 151.035156 C 133.539062 150.695312 132.734375 153.566406 134.621094 153.90625 "/>
<path style=" stroke:none;fill-rule:nonzero;fill:rgb(0%,0%,0%);fill-opacity:1;" d="M 187.722656 175.726562 C 185.839844 173.933594 183.113281 174.375 181.546875 176.730469 C 180.445312 178.382812 179.949219 180.699219 179.652344 182.964844 C 179.382812 185.023438 179.25 187.195312 179.691406 189.1875 C 180.328125 192.027344 182.167969 194.15625 184.1875 194.574219 C 186.203125 194.996094 188.3125 193.769531 189.6875 191.558594 C 191.058594 189.351562 191.695312 186.246094 191.507812 183.265625 C 191.269531 179.472656 189.425781 175.667969 186.847656 175.214844 "/>
<path style=" stroke:none;fill-rule:nonzero;fill:rgb(56.469727%,29.019165%,19.999695%);fill-opacity:1;" d="M 188.25 175.195312 C 186.652344 173.847656 184.621094 173.425781 182.75 174.542969 C 180.609375 175.820312 179.742188 178.421875 179.265625 180.730469 C 178.320312 185.300781 177.824219 192.535156 182.957031 194.941406 C 188.039062 197.324219 191.460938 190.953125 192.085938 186.898438 C 192.710938 182.851562 191.9375 175.71875 187.046875 174.492188 C 186.113281 174.257812 185.714844 175.703125 186.648438 175.9375 C 190.261719 176.84375 190.960938 182.285156 190.757812 185.335938 C 190.546875 188.558594 188.476562 195.199219 183.957031 193.738281 C 180.019531 192.464844 179.949219 186.945312 180.316406 183.65625 C 180.652344 180.664062 182.628906 172.414062 187.191406 176.257812 C 187.925781 176.875 188.988281 175.820312 188.25 175.195312 "/>
<path style=" stroke:none;fill-rule:nonzero;fill:rgb(0%,0%,0%);fill-opacity:1;" d="M 186.335938 175.203125 C 185.90625 174.945312 185.589844 175.816406 185.5 176.484375 C 185.378906 177.382812 185.257812 178.324219 185.425781 179.207031 C 185.574219 179.976562 185.921875 180.621094 186.183594 181.324219 C 186.941406 183.363281 186.929688 185.835938 186.660156 188.121094 C 186.386719 190.425781 185.769531 192.851562 184.40625 194.0625 "/>
<path style=" stroke:none;fill-rule:nonzero;fill:rgb(56.469727%,29.019165%,19.999695%);fill-opacity:1;" d="M 186.335938 174.453125 C 183.6875 174.441406 184.707031 179.585938 185.253906 181.007812 C 186.597656 184.484375 186.703125 190.667969 183.878906 193.53125 C 183.199219 194.21875 184.257812 195.277344 184.9375 194.589844 C 187.007812 192.492188 187.425781 189.199219 187.550781 186.382812 C 187.625 184.726562 187.527344 183.023438 187.007812 181.4375 C 186.746094 180.628906 186.347656 179.890625 186.195312 179.050781 C 186.140625 178.75 186.070312 175.949219 186.335938 175.949219 C 187.300781 175.953125 187.300781 174.457031 186.335938 174.453125 "/>
</g>
</svg>
