<?xml version="1.0" encoding="UTF-8"?>
<svg xmlns="http://www.w3.org/2000/svg" xmlns:xlink="http://www.w3.org/1999/xlink" width="100pt" height="100pt" viewBox="0 0 375 374.999991" version="1.2">
<defs>
<filter id="alpha" filterUnits="objectBoundingBox" x="0%" y="0%" width="100%" height="100%">
  <feColorMatrix type="matrix" in="SourceGraphic" values="0 0 0 0 1 0 0 0 0 1 0 0 0 0 1 0 0 0 1 0"/>
</filter>
<mask id="mask0">
  <g filter="url(#alpha)">
<rect x="0" y="0" width="375" height="374.999991" style="fill:rgb(0%,0%,0%);fill-opacity:0.2;stroke:none;"/>
  </g>
</mask>
<clipPath id="clip2">
  <path d="M 0 0.558594 L 75 0.558594 L 75 54 L 0 54 Z M 0 0.558594 "/>
</clipPath>
<clipPath id="clip1">
  <rect x="0" y="0" width="76" height="55"/>
</clipPath>
<g id="surface5" clip-path="url(#clip1)">
<g clip-path="url(#clip2)" clip-rule="nonzero">
<path style=" stroke:none;fill-rule:nonzero;fill:rgb(20.388794%,10.5896%,2.749634%);fill-opacity:1;" d="M 0.203125 0.769531 L 74.917969 0.769531 L 74.917969 53.890625 L 0.203125 53.890625 Z M 0.203125 0.769531 "/>
</g>
</g>
<mask id="mask1">
  <g filter="url(#alpha)">
<rect x="0" y="0" width="375" height="374.999991" style="fill:rgb(0%,0%,0%);fill-opacity:0.2;stroke:none;"/>
  </g>
</mask>
<clipPath id="clip4">
  <path d="M 0 0.558594 L 75 0.558594 L 75 6.558594 L 0 6.558594 Z M 0 0.558594 "/>
</clipPath>
<clipPath id="clip3">
  <rect x="0" y="0" width="76" height="7"/>
</clipPath>
<g id="surface8" clip-path="url(#clip3)">
<g clip-path="url(#clip4)" clip-rule="nonzero">
<path style=" stroke:none;fill-rule:nonzero;fill:rgb(20.388794%,10.5896%,2.749634%);fill-opacity:1;" d="M 0.203125 0.769531 L 74.917969 0.769531 L 74.917969 6.347656 L 0.203125 6.347656 Z M 0.203125 0.769531 "/>
</g>
</g>
<mask id="mask2">
  <g filter="url(#alpha)">
<rect x="0" y="0" width="375" height="374.999991" style="fill:rgb(0%,0%,0%);fill-opacity:0.2;stroke:none;"/>
  </g>
</mask>
<clipPath id="clip6">
  <path d="M 0.480469 0.679688 L 86.878906 0.679688 L 86.878906 31.398438 L 0.480469 31.398438 Z M 0.480469 0.679688 "/>
</clipPath>
<clipPath id="clip5">
  <rect x="0" y="0" width="87" height="32"/>
</clipPath>
<g id="surface11" clip-path="url(#clip5)">
<g clip-path="url(#clip6)" clip-rule="nonzero">
<path style=" stroke:none;fill-rule:nonzero;fill:rgb(80.389404%,79.219055%,70.588684%);fill-opacity:1;" d="M 76.1875 0.953125 L 10.890625 0.953125 C 5.28125 0.953125 0.671875 5.566406 0.671875 11.183594 L 0.671875 31.042969 L 2.074219 31.042969 L 2.074219 11.183594 C 2.074219 6.289062 6.042969 2.316406 10.933594 2.316406 L 76.230469 2.316406 C 81.117188 2.316406 85.085938 6.289062 85.085938 11.183594 L 85.085938 31.042969 L 86.488281 31.042969 L 86.488281 11.183594 C 86.449219 5.566406 81.839844 0.953125 76.1875 0.953125 Z M 76.1875 0.953125 "/>
</g>
</g>
<mask id="mask3">
  <g filter="url(#alpha)">
<rect x="0" y="0" width="375" height="374.999991" style="fill:rgb(0%,0%,0%);fill-opacity:0.1176;stroke:none;"/>
  </g>
</mask>
<clipPath id="clip8">
  <path d="M 0.121094 1 L 16.679688 1 L 16.679688 17 L 0.121094 17 Z M 0.121094 1 "/>
</clipPath>
<clipPath id="clip7">
  <rect x="0" y="0" width="17" height="18"/>
</clipPath>
<g id="surface14" clip-path="url(#clip7)">
<g clip-path="url(#clip8)" clip-rule="nonzero">
<path style=" stroke:none;fill-rule:nonzero;fill:rgb(20.388794%,10.5896%,2.749634%);fill-opacity:1;" d="M 16.515625 8.804688 C 16.515625 9.316406 16.464844 9.820312 16.359375 10.324219 C 16.257812 10.824219 16.101562 11.3125 15.898438 11.785156 C 15.695312 12.253906 15.445312 12.703125 15.152344 13.128906 C 14.855469 13.554688 14.519531 13.949219 14.144531 14.308594 C 13.769531 14.671875 13.359375 14.992188 12.917969 15.277344 C 12.476562 15.5625 12.007812 15.800781 11.515625 15.996094 C 11.027344 16.191406 10.519531 16.339844 10 16.4375 C 9.476562 16.539062 8.949219 16.589844 8.417969 16.589844 C 7.886719 16.589844 7.359375 16.539062 6.839844 16.4375 C 6.316406 16.339844 5.8125 16.191406 5.320312 15.996094 C 4.828125 15.800781 4.363281 15.5625 3.921875 15.277344 C 3.476562 14.992188 3.070312 14.671875 2.691406 14.308594 C 2.316406 13.949219 1.980469 13.554688 1.6875 13.128906 C 1.390625 12.703125 1.140625 12.253906 0.9375 11.785156 C 0.734375 11.3125 0.582031 10.824219 0.476562 10.324219 C 0.375 9.820312 0.320312 9.316406 0.320312 8.804688 C 0.320312 8.292969 0.375 7.789062 0.476562 7.285156 C 0.582031 6.785156 0.734375 6.296875 0.9375 5.828125 C 1.140625 5.355469 1.390625 4.90625 1.6875 4.480469 C 1.980469 4.054688 2.316406 3.664062 2.691406 3.300781 C 3.070312 2.941406 3.476562 2.617188 3.921875 2.332031 C 4.363281 2.050781 4.828125 1.808594 5.320312 1.613281 C 5.8125 1.417969 6.316406 1.269531 6.839844 1.171875 C 7.359375 1.070312 7.886719 1.023438 8.417969 1.023438 C 8.949219 1.023438 9.476562 1.070312 10 1.171875 C 10.519531 1.269531 11.027344 1.417969 11.515625 1.613281 C 12.007812 1.808594 12.476562 2.050781 12.917969 2.332031 C 13.359375 2.617188 13.769531 2.941406 14.144531 3.300781 C 14.519531 3.664062 14.855469 4.054688 15.152344 4.480469 C 15.445312 4.90625 15.695312 5.355469 15.898438 5.828125 C 16.101562 6.296875 16.257812 6.785156 16.359375 7.285156 C 16.464844 7.789062 16.515625 8.292969 16.515625 8.804688 Z M 16.515625 8.804688 "/>
</g>
</g>
<mask id="mask4">
  <g filter="url(#alpha)">
<rect x="0" y="0" width="375" height="374.999991" style="fill:rgb(0%,0%,0%);fill-opacity:0.1176;stroke:none;"/>
  </g>
</mask>
<clipPath id="clip10">
  <path d="M 0.0390625 0.441406 L 14 0.441406 L 14 14.359375 L 0.0390625 14.359375 Z M 0.0390625 0.441406 "/>
</clipPath>
<clipPath id="clip9">
  <rect x="0" y="0" width="15" height="15"/>
</clipPath>
<g id="surface17" clip-path="url(#clip9)">
<g clip-path="url(#clip10)" clip-rule="nonzero">
<path style=" stroke:none;fill-rule:nonzero;fill:rgb(20.388794%,10.5896%,2.749634%);fill-opacity:1;" d="M 7.140625 0.585938 C 3.414062 0.585938 0.40625 3.59375 0.40625 7.328125 C 0.40625 11.058594 3.414062 14.066406 7.140625 14.066406 C 10.867188 14.066406 13.875 11.058594 13.875 7.328125 C 13.875 3.59375 10.867188 0.585938 7.140625 0.585938 Z M 7.902344 13.105469 C 5.015625 13.105469 2.691406 10.777344 2.691406 7.886719 C 2.691406 5 5.015625 2.671875 7.902344 2.671875 C 10.789062 2.671875 13.113281 5 13.113281 7.886719 C 13.113281 10.738281 10.789062 13.105469 7.902344 13.105469 Z M 7.902344 13.105469 "/>
</g>
</g>
<mask id="mask5">
  <g filter="url(#alpha)">
<rect x="0" y="0" width="375" height="374.999991" style="fill:rgb(0%,0%,0%);fill-opacity:0.1176;stroke:none;"/>
  </g>
</mask>
<clipPath id="clip12">
  <path d="M 0.480469 0.0390625 L 6 0.0390625 L 6 3 L 0.480469 3 Z M 0.480469 0.0390625 "/>
</clipPath>
<clipPath id="clip11">
  <rect x="0" y="0" width="7" height="4"/>
</clipPath>
<g id="surface20" clip-path="url(#clip11)">
<g clip-path="url(#clip12)" clip-rule="nonzero">
<path style=" stroke:none;fill-rule:nonzero;fill:rgb(20.388794%,10.5896%,2.749634%);fill-opacity:1;" d="M 5.960938 0.117188 C 5.960938 1.519531 4.796875 2.683594 3.394531 2.683594 C 1.992188 2.683594 0.828125 1.519531 0.828125 0.117188 "/>
</g>
</g>
<mask id="mask6">
  <g filter="url(#alpha)">
<rect x="0" y="0" width="375" height="374.999991" style="fill:rgb(0%,0%,0%);fill-opacity:0.1176;stroke:none;"/>
  </g>
</mask>
<clipPath id="clip14">
  <path d="M 0.359375 0.0390625 L 5.640625 0.0390625 L 5.640625 3 L 0.359375 3 Z M 0.359375 0.0390625 "/>
</clipPath>
<clipPath id="clip13">
  <rect x="0" y="0" width="6" height="4"/>
</clipPath>
<g id="surface23" clip-path="url(#clip13)">
<g clip-path="url(#clip14)" clip-rule="nonzero">
<path style=" stroke:none;fill-rule:nonzero;fill:rgb(20.388794%,10.5896%,2.749634%);fill-opacity:1;" d="M 5.539062 0.117188 C 5.539062 1.519531 4.378906 2.683594 2.972656 2.683594 C 1.570312 2.683594 0.410156 1.519531 0.410156 0.117188 "/>
</g>
</g>
<clipPath id="clip15">
  <path d="M 144 169 L 232.933594 169 L 232.933594 173 L 144 173 Z M 144 169 "/>
</clipPath>
<mask id="mask7">
  <g filter="url(#alpha)">
<rect x="0" y="0" width="375" height="374.999991" style="fill:rgb(0%,0%,0%);fill-opacity:0.1176;stroke:none;"/>
  </g>
</mask>
<clipPath id="clip17">
  <path d="M 0 1 L 88 1 L 88 3.800781 L 0 3.800781 Z M 0 1 "/>
</clipPath>
<clipPath id="clip16">
  <rect x="0" y="0" width="89" height="4"/>
</clipPath>
<g id="surface26" clip-path="url(#clip16)">
<g clip-path="url(#clip17)" clip-rule="nonzero">
<path style=" stroke:none;fill-rule:nonzero;fill:rgb(20.388794%,10.5896%,2.749634%);fill-opacity:1;" d="M 0.46875 1.042969 L 87.613281 1.042969 L 87.613281 3.769531 L 0.46875 3.769531 Z M 0.46875 1.042969 "/>
</g>
</g>
<clipPath id="clip18">
  <path d="M 142.183594 137.363281 L 232.933594 137.363281 L 232.933594 175 L 142.183594 175 Z M 142.183594 137.363281 "/>
</clipPath>
<mask id="mask8">
  <g filter="url(#alpha)">
<rect x="0" y="0" width="375" height="374.999991" style="fill:rgb(0%,0%,0%);fill-opacity:0.2;stroke:none;"/>
  </g>
</mask>
<clipPath id="clip19">
  <rect x="0" y="0" width="76" height="6"/>
</clipPath>
<g id="surface29" clip-path="url(#clip19)">
<path style=" stroke:none;fill-rule:nonzero;fill:rgb(20.388794%,10.5896%,2.749634%);fill-opacity:1;" d="M 0.203125 1.039062 L 74.917969 1.039062 L 74.917969 4.890625 L 0.203125 4.890625 Z M 0.203125 1.039062 "/>
</g>
<mask id="mask9">
  <g filter="url(#alpha)">
<rect x="0" y="0" width="375" height="374.999991" style="fill:rgb(0%,0%,0%);fill-opacity:0.2;stroke:none;"/>
  </g>
</mask>
<clipPath id="clip21">
  <path d="M 1 0.519531 L 24.679688 0.519531 L 24.679688 2.679688 L 1 2.679688 Z M 1 0.519531 "/>
</clipPath>
<clipPath id="clip20">
  <rect x="0" y="0" width="25" height="3"/>
</clipPath>
<g id="surface32" clip-path="url(#clip20)">
<g clip-path="url(#clip21)" clip-rule="nonzero">
<path style=" stroke:none;fill-rule:nonzero;fill:rgb(20.388794%,10.5896%,2.749634%);fill-opacity:1;" d="M 1.097656 0.773438 L 24.183594 0.773438 L 24.183594 2.578125 L 1.097656 2.578125 Z M 1.097656 0.773438 "/>
</g>
</g>
<mask id="mask10">
  <g filter="url(#alpha)">
<rect x="0" y="0" width="375" height="374.999991" style="fill:rgb(0%,0%,0%);fill-opacity:0.0275;stroke:none;"/>
  </g>
</mask>
<clipPath id="clip23">
  <path d="M 0.28125 0.441406 L 2.679688 0.441406 L 2.679688 8.839844 L 0.28125 8.839844 Z M 0.28125 0.441406 "/>
</clipPath>
<clipPath id="clip22">
  <rect x="0" y="0" width="3" height="9"/>
</clipPath>
<g id="surface35" clip-path="url(#clip22)">
<g clip-path="url(#clip23)" clip-rule="nonzero">
<path style=" stroke:none;fill-rule:nonzero;fill:rgb(80.389404%,79.219055%,70.588684%);fill-opacity:1;" d="M 0.582031 0.578125 L 2.144531 0.578125 L 2.144531 8.441406 L 0.582031 8.441406 Z M 0.582031 0.578125 "/>
</g>
</g>
<mask id="mask11">
  <g filter="url(#alpha)">
<rect x="0" y="0" width="375" height="374.999991" style="fill:rgb(0%,0%,0%);fill-opacity:0.0275;stroke:none;"/>
  </g>
</mask>
<clipPath id="clip25">
  <path d="M 1 0.601562 L 3 0.601562 L 3 9 L 1 9 Z M 1 0.601562 "/>
</clipPath>
<clipPath id="clip24">
  <rect x="0" y="0" width="4" height="10"/>
</clipPath>
<g id="surface38" clip-path="url(#clip24)">
<g clip-path="url(#clip25)" clip-rule="nonzero">
<path style=" stroke:none;fill-rule:nonzero;fill:rgb(80.389404%,79.219055%,70.588684%);fill-opacity:1;" d="M 1.253906 0.964844 L 2.816406 0.964844 L 2.816406 8.828125 L 1.253906 8.828125 Z M 1.253906 0.964844 "/>
</g>
</g>
<mask id="mask12">
  <g filter="url(#alpha)">
<rect x="0" y="0" width="375" height="374.999991" style="fill:rgb(0%,0%,0%);fill-opacity:0.2;stroke:none;"/>
  </g>
</mask>
<clipPath id="clip27">
  <path d="M 0.0390625 1 L 15.398438 1 L 15.398438 4 L 0.0390625 4 Z M 0.0390625 1 "/>
</clipPath>
<clipPath id="clip26">
  <rect x="0" y="0" width="16" height="5"/>
</clipPath>
<g id="surface41" clip-path="url(#clip26)">
<g clip-path="url(#clip27)" clip-rule="nonzero">
<path style=" stroke:none;fill-rule:nonzero;fill:rgb(20.388794%,10.5896%,2.749634%);fill-opacity:1;" d="M 0.304688 1.179688 L 15.253906 1.179688 L 15.253906 3.828125 L 0.304688 3.828125 Z M 0.304688 1.179688 "/>
</g>
</g>
<clipPath id="clip28">
  <path d="M 144 232 L 232.933594 232 L 232.933594 237 L 144 237 Z M 144 232 "/>
</clipPath>
<mask id="mask13">
  <g filter="url(#alpha)">
<rect x="0" y="0" width="375" height="374.999991" style="fill:rgb(0%,0%,0%);fill-opacity:0.2;stroke:none;"/>
  </g>
</mask>
<clipPath id="clip30">
  <path d="M 0 1 L 88 1 L 88 4.640625 L 0 4.640625 Z M 0 1 "/>
</clipPath>
<clipPath id="clip29">
  <rect x="0" y="0" width="89" height="5"/>
</clipPath>
<g id="surface44" clip-path="url(#clip29)">
<g clip-path="url(#clip30)" clip-rule="nonzero">
<path style=" stroke:none;fill-rule:nonzero;fill:rgb(20.388794%,10.5896%,2.749634%);fill-opacity:1;" d="M 0.46875 1.230469 L 87.613281 1.230469 L 87.613281 4.441406 L 0.46875 4.441406 Z M 0.46875 1.230469 "/>
</g>
</g>
<clipPath id="clip31">
  <path d="M 144 225 L 232.933594 225 L 232.933594 229 L 144 229 Z M 144 225 "/>
</clipPath>
<mask id="mask14">
  <g filter="url(#alpha)">
<rect x="0" y="0" width="375" height="374.999991" style="fill:rgb(0%,0%,0%);fill-opacity:0.2;stroke:none;"/>
  </g>
</mask>
<clipPath id="clip33">
  <path d="M 0 0.601562 L 88 0.601562 L 88 3.960938 L 0 3.960938 Z M 0 0.601562 "/>
</clipPath>
<clipPath id="clip32">
  <rect x="0" y="0" width="89" height="4"/>
</clipPath>
<g id="surface47" clip-path="url(#clip32)">
<g clip-path="url(#clip33)" clip-rule="nonzero">
<path style=" stroke:none;fill-rule:nonzero;fill:rgb(80.389404%,79.219055%,70.588684%);fill-opacity:1;" d="M 0.46875 0.890625 L 87.613281 0.890625 L 87.613281 3.820312 L 0.46875 3.820312 Z M 0.46875 0.890625 "/>
</g>
</g>
<mask id="mask15">
  <g filter="url(#alpha)">
<rect x="0" y="0" width="375" height="374.999991" style="fill:rgb(0%,0%,0%);fill-opacity:0.0196;stroke:none;"/>
  </g>
</mask>
<clipPath id="clip35">
  <path d="M 0.28125 0.601562 L 15.398438 0.601562 L 15.398438 7 L 0.28125 7 Z M 0.28125 0.601562 "/>
</clipPath>
<clipPath id="clip34">
  <rect x="0" y="0" width="16" height="8"/>
</clipPath>
<g id="surface50" clip-path="url(#clip34)">
<g clip-path="url(#clip35)" clip-rule="nonzero">
<path style=" stroke:none;fill-rule:nonzero;fill:rgb(80.389404%,79.219055%,70.588684%);fill-opacity:1;" d="M 15.011719 6.890625 L 0.582031 6.890625 L 0.582031 0.871094 L 11.402344 0.871094 C 13.40625 0.871094 15.011719 2.476562 15.011719 4.480469 Z M 15.011719 6.890625 "/>
</g>
</g>
<clipPath id="clip36">
  <path d="M 142.183594 224 L 232.933594 224 L 232.933594 237.863281 L 142.183594 237.863281 Z M 142.183594 224 "/>
</clipPath>
<mask id="mask16">
  <g filter="url(#alpha)">
<rect x="0" y="0" width="375" height="374.999991" style="fill:rgb(0%,0%,0%);fill-opacity:0.1176;stroke:none;"/>
  </g>
</mask>
<clipPath id="clip38">
  <path d="M 0.0390625 0.441406 L 4 0.441406 L 4 20 L 0.0390625 20 Z M 0.0390625 0.441406 "/>
</clipPath>
<clipPath id="clip37">
  <rect x="0" y="0" width="5" height="21"/>
</clipPath>
<g id="surface53" clip-path="url(#clip37)">
<g clip-path="url(#clip38)" clip-rule="nonzero">
<path style=" stroke:none;fill-rule:nonzero;fill:rgb(80.389404%,79.219055%,70.588684%);fill-opacity:1;" d="M 0.246094 0.972656 L 3.894531 0.972656 L 3.894531 19.707031 L 0.246094 19.707031 Z M 0.246094 0.972656 "/>
</g>
</g>
</defs>
<g id="surface1">
<path style=" stroke:none;fill-rule:nonzero;fill:rgb(89.7995%,67.449951%,13.729858%);fill-opacity:1;" d="M 222.234375 225.890625 L 152.886719 225.890625 C 151.40625 225.890625 150.203125 224.6875 150.203125 223.203125 L 150.203125 175.457031 C 150.203125 173.972656 151.40625 172.769531 152.886719 172.769531 L 222.234375 172.769531 C 223.714844 172.769531 224.917969 173.972656 224.917969 175.457031 L 224.917969 223.203125 C 224.917969 224.6875 223.714844 225.890625 222.234375 225.890625 Z M 222.234375 225.890625 "/>
<use xlink:href="#surface5" transform="matrix(1,0,0,1,150,172)" mask="url(#mask0)"/>
<use xlink:href="#surface8" transform="matrix(1,0,0,1,150,172)" mask="url(#mask1)"/>
<path style=" stroke:none;fill-rule:nonzero;fill:rgb(20.388794%,10.5896%,2.749634%);fill-opacity:1;" d="M 226.28125 227.253906 L 148.839844 227.253906 L 148.839844 171.40625 L 226.28125 171.40625 Z M 151.523438 224.566406 L 223.554688 224.566406 L 223.554688 174.132812 L 151.523438 174.132812 Z M 151.523438 224.566406 "/>
<path style=" stroke:none;fill-rule:nonzero;fill:rgb(89.7995%,67.449951%,13.729858%);fill-opacity:1;" d="M 231.613281 172.769531 L 143.546875 172.769531 L 143.546875 150.222656 C 143.546875 143.921875 148.640625 138.828125 154.933594 138.828125 L 220.230469 138.828125 C 226.523438 138.828125 231.613281 143.921875 231.613281 150.222656 Z M 231.613281 172.769531 "/>
<use xlink:href="#surface11" transform="matrix(1,0,0,1,144,139)" mask="url(#mask2)"/>
<use xlink:href="#surface14" transform="matrix(1,0,0,1,207,149)" mask="url(#mask3)"/>
<path style=" stroke:none;fill-rule:nonzero;fill:rgb(80.389404%,79.219055%,70.588684%);fill-opacity:1;" d="M 222.875 158.328125 C 222.875 158.769531 222.832031 159.207031 222.746094 159.640625 C 222.660156 160.074219 222.53125 160.496094 222.363281 160.90625 C 222.191406 161.316406 221.984375 161.703125 221.738281 162.070312 C 221.492188 162.4375 221.214844 162.78125 220.902344 163.09375 C 220.589844 163.40625 220.25 163.683594 219.882812 163.929688 C 219.515625 164.175781 219.125 164.382812 218.71875 164.554688 C 218.308594 164.722656 217.886719 164.851562 217.453125 164.9375 C 217.019531 165.023438 216.582031 165.066406 216.140625 165.066406 C 215.699219 165.066406 215.261719 165.023438 214.828125 164.9375 C 214.394531 164.851562 213.972656 164.722656 213.5625 164.554688 C 213.15625 164.382812 212.765625 164.175781 212.398438 163.929688 C 212.03125 163.683594 211.691406 163.40625 211.378906 163.09375 C 211.066406 162.78125 210.785156 162.4375 210.539062 162.070312 C 210.296875 161.703125 210.085938 161.316406 209.917969 160.90625 C 209.75 160.496094 209.621094 160.074219 209.535156 159.640625 C 209.449219 159.207031 209.40625 158.769531 209.40625 158.328125 C 209.40625 157.882812 209.449219 157.445312 209.535156 157.011719 C 209.621094 156.578125 209.75 156.15625 209.917969 155.746094 C 210.085938 155.339844 210.296875 154.949219 210.539062 154.582031 C 210.785156 154.214844 211.066406 153.875 211.378906 153.558594 C 211.691406 153.246094 212.03125 152.96875 212.398438 152.722656 C 212.765625 152.476562 213.15625 152.269531 213.5625 152.097656 C 213.972656 151.929688 214.394531 151.800781 214.828125 151.714844 C 215.261719 151.628906 215.699219 151.585938 216.140625 151.585938 C 216.582031 151.585938 217.019531 151.628906 217.453125 151.714844 C 217.886719 151.800781 218.308594 151.929688 218.71875 152.097656 C 219.125 152.269531 219.515625 152.476562 219.882812 152.722656 C 220.25 152.96875 220.589844 153.246094 220.902344 153.558594 C 221.214844 153.875 221.492188 154.214844 221.738281 154.582031 C 221.984375 154.949219 222.191406 155.339844 222.363281 155.746094 C 222.53125 156.15625 222.660156 156.578125 222.746094 157.011719 C 222.832031 157.445312 222.875 157.882812 222.875 158.328125 Z M 222.875 158.328125 "/>
<path style=" stroke:none;fill-rule:nonzero;fill:rgb(20.388794%,10.5896%,2.749634%);fill-opacity:1;" d="M 220.109375 157.164062 C 219.867188 157.164062 219.585938 157.003906 219.46875 156.761719 C 218.867188 155.476562 217.542969 154.675781 216.140625 154.675781 C 214.738281 154.675781 213.414062 155.519531 212.8125 156.761719 C 212.652344 157.121094 212.253906 157.242188 211.890625 157.082031 C 211.53125 156.921875 211.410156 156.519531 211.570312 156.160156 C 212.414062 154.394531 214.175781 153.269531 216.140625 153.269531 C 218.105469 153.269531 219.867188 154.394531 220.710938 156.160156 C 220.871094 156.519531 220.710938 156.921875 220.390625 157.082031 C 220.308594 157.121094 220.1875 157.164062 220.109375 157.164062 Z M 220.109375 157.164062 "/>
<path style=" stroke:none;fill-rule:nonzero;fill:rgb(20.388794%,10.5896%,2.749634%);fill-opacity:1;" d="M 216.300781 155.800781 L 217.101562 158.285156 C 217.261719 158.808594 216.980469 159.371094 216.460938 159.570312 C 215.941406 159.730469 215.378906 159.449219 215.179688 158.929688 C 215.097656 158.726562 215.097656 158.488281 215.179688 158.285156 L 215.980469 155.800781 C 216.019531 155.71875 216.101562 155.679688 216.179688 155.71875 C 216.261719 155.71875 216.261719 155.757812 216.300781 155.800781 Z M 216.300781 155.800781 "/>
<path style=" stroke:none;fill-rule:nonzero;fill:rgb(20.388794%,10.5896%,2.749634%);fill-opacity:1;" d="M 216.582031 162.539062 C 216.582031 162.660156 216.539062 162.765625 216.453125 162.851562 C 216.367188 162.9375 216.261719 162.980469 216.140625 162.980469 C 216.019531 162.980469 215.914062 162.9375 215.828125 162.851562 C 215.742188 162.765625 215.699219 162.660156 215.699219 162.539062 C 215.699219 162.417969 215.742188 162.3125 215.828125 162.226562 C 215.914062 162.140625 216.019531 162.097656 216.140625 162.097656 C 216.261719 162.097656 216.367188 162.140625 216.453125 162.226562 C 216.539062 162.3125 216.582031 162.417969 216.582031 162.539062 Z M 216.582031 162.539062 "/>
<path style=" stroke:none;fill-rule:nonzero;fill:rgb(20.388794%,10.5896%,2.749634%);fill-opacity:1;" d="M 218.222656 162.539062 C 218.222656 162.660156 218.179688 162.765625 218.09375 162.851562 C 218.007812 162.9375 217.90625 162.980469 217.785156 162.980469 C 217.660156 162.980469 217.558594 162.9375 217.472656 162.851562 C 217.386719 162.765625 217.34375 162.660156 217.34375 162.539062 C 217.34375 162.417969 217.386719 162.3125 217.472656 162.226562 C 217.558594 162.140625 217.660156 162.097656 217.785156 162.097656 C 217.90625 162.097656 218.007812 162.140625 218.09375 162.226562 C 218.179688 162.3125 218.222656 162.417969 218.222656 162.539062 Z M 218.222656 162.539062 "/>
<path style=" stroke:none;fill-rule:nonzero;fill:rgb(20.388794%,10.5896%,2.749634%);fill-opacity:1;" d="M 214.9375 162.539062 C 214.9375 162.660156 214.894531 162.765625 214.808594 162.851562 C 214.722656 162.9375 214.617188 162.980469 214.496094 162.980469 C 214.375 162.980469 214.269531 162.9375 214.183594 162.851562 C 214.097656 162.765625 214.054688 162.660156 214.054688 162.539062 C 214.054688 162.417969 214.097656 162.3125 214.183594 162.226562 C 214.269531 162.140625 214.375 162.097656 214.496094 162.097656 C 214.617188 162.097656 214.722656 162.140625 214.808594 162.226562 C 214.894531 162.3125 214.9375 162.417969 214.9375 162.539062 Z M 214.9375 162.539062 "/>
<use xlink:href="#surface17" transform="matrix(1,0,0,1,209,151)" mask="url(#mask4)"/>
<path style=" stroke:none;fill-rule:nonzero;fill:rgb(20.388794%,10.5896%,2.749634%);fill-opacity:1;" d="M 216.140625 166.03125 C 211.890625 166.03125 208.445312 162.578125 208.445312 158.328125 C 208.445312 154.074219 211.890625 150.625 216.140625 150.625 C 220.390625 150.625 223.835938 154.074219 223.835938 158.328125 C 223.835938 162.578125 220.390625 166.03125 216.140625 166.03125 Z M 216.140625 152.550781 C 212.972656 152.550781 210.367188 155.15625 210.367188 158.328125 C 210.367188 161.496094 212.972656 164.105469 216.140625 164.105469 C 219.308594 164.105469 221.914062 161.496094 221.914062 158.328125 C 221.914062 155.15625 219.347656 152.550781 216.140625 152.550781 Z M 216.140625 152.550781 "/>
<path style=" stroke:none;fill-rule:nonzero;fill:rgb(20.388794%,10.5896%,2.749634%);fill-opacity:1;" d="M 167.960938 155.117188 C 167.960938 155.457031 167.894531 155.785156 167.765625 156.097656 C 167.632812 156.414062 167.449219 156.691406 167.207031 156.933594 C 166.96875 157.171875 166.691406 157.359375 166.375 157.488281 C 166.0625 157.621094 165.734375 157.683594 165.394531 157.683594 C 165.054688 157.683594 164.726562 157.621094 164.414062 157.488281 C 164.097656 157.359375 163.820312 157.171875 163.578125 156.933594 C 163.339844 156.691406 163.152344 156.414062 163.023438 156.097656 C 162.894531 155.785156 162.828125 155.457031 162.828125 155.117188 C 162.828125 154.777344 162.894531 154.449219 163.023438 154.132812 C 163.152344 153.820312 163.339844 153.542969 163.578125 153.300781 C 163.820312 153.058594 164.097656 152.875 164.414062 152.746094 C 164.726562 152.613281 165.054688 152.550781 165.394531 152.550781 C 165.734375 152.550781 166.0625 152.613281 166.375 152.746094 C 166.691406 152.875 166.96875 153.058594 167.207031 153.300781 C 167.449219 153.542969 167.632812 153.820312 167.765625 154.132812 C 167.894531 154.449219 167.960938 154.777344 167.960938 155.117188 Z M 167.960938 155.117188 "/>
<path style=" stroke:none;fill-rule:nonzero;fill:rgb(20.388794%,10.5896%,2.749634%);fill-opacity:1;" d="M 165.394531 158.445312 C 163.550781 158.445312 162.066406 156.960938 162.066406 155.117188 C 162.066406 153.269531 163.550781 151.785156 165.394531 151.785156 C 167.238281 151.785156 168.722656 153.269531 168.722656 155.117188 C 168.722656 156.960938 167.238281 158.445312 165.394531 158.445312 Z M 165.394531 153.3125 C 164.390625 153.3125 163.589844 154.113281 163.589844 155.117188 C 163.589844 156.121094 164.390625 156.921875 165.394531 156.921875 C 166.394531 156.921875 167.199219 156.121094 167.199219 155.117188 C 167.199219 154.113281 166.394531 153.3125 165.394531 153.3125 Z M 165.394531 153.3125 "/>
<path style=" stroke:none;fill-rule:nonzero;fill:rgb(20.388794%,10.5896%,2.749634%);fill-opacity:1;" d="M 163.789062 162.898438 L 166.957031 162.898438 L 166.957031 166.070312 L 163.789062 166.070312 Z M 163.789062 162.898438 "/>
<use xlink:href="#surface20" transform="matrix(1,0,0,1,162,155)" mask="url(#mask5)"/>
<path style=" stroke:none;fill-rule:nonzero;fill:rgb(89.7995%,67.449951%,13.729858%);fill-opacity:1;" d="M 158.539062 155.117188 C 158.539062 155.457031 158.472656 155.785156 158.34375 156.097656 C 158.214844 156.414062 158.027344 156.691406 157.789062 156.933594 C 157.546875 157.171875 157.269531 157.359375 156.957031 157.488281 C 156.640625 157.621094 156.3125 157.683594 155.972656 157.683594 C 155.632812 157.683594 155.308594 157.621094 154.992188 157.488281 C 154.679688 157.359375 154.402344 157.171875 154.160156 156.933594 C 153.917969 156.691406 153.734375 156.414062 153.605469 156.097656 C 153.472656 155.785156 153.410156 155.457031 153.410156 155.117188 C 153.410156 154.777344 153.472656 154.449219 153.605469 154.132812 C 153.734375 153.820312 153.917969 153.542969 154.160156 153.300781 C 154.402344 153.058594 154.679688 152.875 154.992188 152.746094 C 155.308594 152.613281 155.632812 152.550781 155.972656 152.550781 C 156.3125 152.550781 156.640625 152.613281 156.957031 152.746094 C 157.269531 152.875 157.546875 153.058594 157.789062 153.300781 C 158.027344 153.542969 158.214844 153.820312 158.34375 154.132812 C 158.472656 154.449219 158.539062 154.777344 158.539062 155.117188 Z M 158.539062 155.117188 "/>
<path style=" stroke:none;fill-rule:nonzero;fill:rgb(20.388794%,10.5896%,2.749634%);fill-opacity:1;" d="M 155.972656 158.445312 C 154.128906 158.445312 152.648438 156.960938 152.648438 155.117188 C 152.648438 153.269531 154.128906 151.785156 155.972656 151.785156 C 157.816406 151.785156 159.300781 153.269531 159.300781 155.117188 C 159.300781 156.960938 157.816406 158.445312 155.972656 158.445312 Z M 155.972656 153.3125 C 154.972656 153.3125 154.171875 154.113281 154.171875 155.117188 C 154.171875 156.121094 154.972656 156.921875 155.972656 156.921875 C 156.976562 156.921875 157.777344 156.121094 157.777344 155.117188 C 157.777344 154.113281 156.9375 153.3125 155.972656 153.3125 Z M 155.972656 153.3125 "/>
<path style=" stroke:none;fill-rule:nonzero;fill:rgb(20.388794%,10.5896%,2.749634%);fill-opacity:1;" d="M 154.371094 162.898438 L 157.539062 162.898438 L 157.539062 166.070312 L 154.371094 166.070312 Z M 154.371094 162.898438 "/>
<use xlink:href="#surface23" transform="matrix(1,0,0,1,153,155)" mask="url(#mask6)"/>
<path style=" stroke:none;fill-rule:nonzero;fill:rgb(20.388794%,10.5896%,2.749634%);fill-opacity:1;" d="M 228.285156 168.476562 C 228.285156 168.609375 228.261719 168.738281 228.210938 168.859375 C 228.160156 168.984375 228.085938 169.09375 227.992188 169.1875 C 227.898438 169.28125 227.789062 169.351562 227.667969 169.402344 C 227.542969 169.453125 227.417969 169.480469 227.285156 169.480469 C 227.152344 169.480469 227.023438 169.453125 226.898438 169.402344 C 226.777344 169.351562 226.667969 169.28125 226.574219 169.1875 C 226.480469 169.09375 226.410156 168.984375 226.359375 168.859375 C 226.308594 168.738281 226.28125 168.609375 226.28125 168.476562 C 226.28125 168.34375 226.308594 168.214844 226.359375 168.09375 C 226.410156 167.96875 226.480469 167.863281 226.574219 167.769531 C 226.667969 167.671875 226.777344 167.601562 226.898438 167.550781 C 227.023438 167.5 227.152344 167.472656 227.285156 167.472656 C 227.417969 167.472656 227.542969 167.5 227.667969 167.550781 C 227.789062 167.601562 227.898438 167.671875 227.992188 167.769531 C 228.085938 167.863281 228.160156 167.96875 228.210938 168.09375 C 228.261719 168.214844 228.285156 168.34375 228.285156 168.476562 Z M 228.285156 168.476562 "/>
<path style=" stroke:none;fill-rule:nonzero;fill:rgb(20.388794%,10.5896%,2.749634%);fill-opacity:1;" d="M 228.285156 149.257812 C 228.285156 149.390625 228.261719 149.519531 228.210938 149.644531 C 228.160156 149.765625 228.085938 149.875 227.992188 149.96875 C 227.898438 150.0625 227.789062 150.136719 227.667969 150.1875 C 227.542969 150.238281 227.417969 150.261719 227.285156 150.261719 C 227.152344 150.261719 227.023438 150.238281 226.898438 150.1875 C 226.777344 150.136719 226.667969 150.0625 226.574219 149.96875 C 226.480469 149.875 226.410156 149.765625 226.359375 149.644531 C 226.308594 149.519531 226.28125 149.390625 226.28125 149.257812 C 226.28125 149.125 226.308594 149 226.359375 148.875 C 226.410156 148.753906 226.480469 148.644531 226.574219 148.550781 C 226.667969 148.457031 226.777344 148.382812 226.898438 148.332031 C 227.023438 148.28125 227.152344 148.257812 227.285156 148.257812 C 227.417969 148.257812 227.542969 148.28125 227.667969 148.332031 C 227.789062 148.382812 227.898438 148.457031 227.992188 148.550781 C 228.085938 148.644531 228.160156 148.753906 228.210938 148.875 C 228.261719 149 228.285156 149.125 228.285156 149.257812 Z M 228.285156 149.257812 "/>
<path style=" stroke:none;fill-rule:nonzero;fill:rgb(20.388794%,10.5896%,2.749634%);fill-opacity:1;" d="M 148.71875 168.476562 C 148.71875 168.609375 148.695312 168.738281 148.644531 168.859375 C 148.59375 168.984375 148.519531 169.09375 148.425781 169.1875 C 148.332031 169.28125 148.222656 169.351562 148.101562 169.402344 C 147.976562 169.453125 147.851562 169.480469 147.71875 169.480469 C 147.585938 169.480469 147.457031 169.453125 147.332031 169.402344 C 147.210938 169.351562 147.101562 169.28125 147.007812 169.1875 C 146.914062 169.09375 146.84375 168.984375 146.792969 168.859375 C 146.738281 168.738281 146.714844 168.609375 146.714844 168.476562 C 146.714844 168.34375 146.738281 168.214844 146.792969 168.09375 C 146.84375 167.96875 146.914062 167.863281 147.007812 167.769531 C 147.101562 167.671875 147.210938 167.601562 147.332031 167.550781 C 147.457031 167.5 147.585938 167.472656 147.71875 167.472656 C 147.851562 167.472656 147.976562 167.5 148.101562 167.550781 C 148.222656 167.601562 148.332031 167.671875 148.425781 167.769531 C 148.519531 167.863281 148.59375 167.96875 148.644531 168.09375 C 148.695312 168.214844 148.71875 168.34375 148.71875 168.476562 Z M 148.71875 168.476562 "/>
<path style=" stroke:none;fill-rule:nonzero;fill:rgb(20.388794%,10.5896%,2.749634%);fill-opacity:1;" d="M 148.71875 149.257812 C 148.71875 149.390625 148.695312 149.519531 148.644531 149.644531 C 148.59375 149.765625 148.519531 149.875 148.425781 149.96875 C 148.332031 150.0625 148.222656 150.136719 148.101562 150.1875 C 147.976562 150.238281 147.851562 150.261719 147.71875 150.261719 C 147.585938 150.261719 147.457031 150.238281 147.332031 150.1875 C 147.210938 150.136719 147.101562 150.0625 147.007812 149.96875 C 146.914062 149.875 146.84375 149.765625 146.792969 149.644531 C 146.738281 149.519531 146.714844 149.390625 146.714844 149.257812 C 146.714844 149.125 146.738281 149 146.792969 148.875 C 146.84375 148.753906 146.914062 148.644531 147.007812 148.550781 C 147.101562 148.457031 147.210938 148.382812 147.332031 148.332031 C 147.457031 148.28125 147.585938 148.257812 147.71875 148.257812 C 147.851562 148.257812 147.976562 148.28125 148.101562 148.332031 C 148.222656 148.382812 148.332031 148.457031 148.425781 148.550781 C 148.519531 148.644531 148.59375 148.753906 148.644531 148.875 C 148.695312 149 148.71875 149.125 148.71875 149.257812 Z M 148.71875 149.257812 "/>
<g clip-path="url(#clip15)" clip-rule="nonzero">
<use xlink:href="#surface26" transform="matrix(1,0,0,1,144,169)" mask="url(#mask7)"/>
</g>
<g clip-path="url(#clip18)" clip-rule="nonzero">
<path style=" stroke:none;fill-rule:nonzero;fill:rgb(20.388794%,10.5896%,2.749634%);fill-opacity:1;" d="M 232.933594 174.132812 L 142.183594 174.132812 L 142.183594 150.222656 C 142.183594 143.160156 147.878906 137.464844 154.933594 137.464844 L 220.230469 137.464844 C 227.242188 137.464844 232.976562 143.160156 232.976562 150.222656 L 232.976562 174.132812 Z M 144.871094 171.40625 L 230.25 171.40625 L 230.25 150.222656 C 230.25 144.6875 225.761719 140.191406 220.230469 140.191406 L 154.933594 140.191406 C 149.402344 140.191406 144.910156 144.6875 144.910156 150.222656 L 144.910156 171.40625 Z M 144.871094 171.40625 "/>
</g>
<path style=" stroke:none;fill-rule:nonzero;fill:rgb(20.388794%,10.5896%,2.749634%);fill-opacity:1;" d="M 144.46875 144.886719 L 230.371094 144.886719 L 230.371094 146.410156 L 144.46875 146.410156 Z M 144.46875 144.886719 "/>
<use xlink:href="#surface29" transform="matrix(1,0,0,1,150,221)" mask="url(#mask8)"/>
<path style=" stroke:none;fill-rule:nonzero;fill:rgb(89.7995%,67.449951%,13.729858%);fill-opacity:1;" d="M 231.613281 236.402344 L 143.546875 236.402344 L 143.546875 229.378906 C 143.546875 227.453125 145.113281 225.847656 147.074219 225.847656 L 228.125 225.847656 C 230.050781 225.847656 231.652344 227.414062 231.652344 229.378906 L 231.652344 236.402344 Z M 231.613281 236.402344 "/>
<path style=" stroke:none;fill-rule:nonzero;fill:rgb(89.7995%,67.449951%,13.729858%);fill-opacity:1;" d="M 197.382812 183.964844 L 177.738281 183.964844 C 176.496094 183.964844 175.496094 182.960938 175.496094 181.71875 L 175.496094 172.769531 L 199.625 172.769531 L 199.625 181.71875 C 199.625 182.960938 198.625 183.964844 197.382812 183.964844 Z M 197.382812 183.964844 "/>
<use xlink:href="#surface32" transform="matrix(1,0,0,1,175,173)" mask="url(#mask9)"/>
<path style=" stroke:none;fill-rule:nonzero;fill:rgb(89.7995%,67.449951%,13.729858%);fill-opacity:1;" d="M 178.980469 183.964844 L 196.179688 183.964844 L 196.179688 192.226562 L 178.980469 192.226562 Z M 178.980469 183.964844 "/>
<use xlink:href="#surface35" transform="matrix(1,0,0,1,197,175)" mask="url(#mask10)"/>
<use xlink:href="#surface38" transform="matrix(1,0,0,1,193,183)" mask="url(#mask11)"/>
<path style=" stroke:none;fill-rule:nonzero;fill:rgb(20.388794%,10.5896%,2.749634%);fill-opacity:1;" d="M 197.382812 184.925781 L 177.738281 184.925781 C 175.976562 184.925781 174.53125 183.480469 174.53125 181.71875 L 174.53125 171.808594 L 200.585938 171.808594 L 200.585938 181.71875 C 200.585938 183.480469 199.144531 184.925781 197.382812 184.925781 Z M 176.457031 173.734375 L 176.457031 181.71875 C 176.457031 182.4375 177.019531 183 177.738281 183 L 197.382812 183 C 198.101562 183 198.664062 182.4375 198.664062 181.71875 L 198.664062 173.734375 Z M 176.457031 173.734375 "/>
<use xlink:href="#surface41" transform="matrix(1,0,0,1,179,188)" mask="url(#mask12)"/>
<path style=" stroke:none;fill-rule:nonzero;fill:rgb(20.388794%,10.5896%,2.749634%);fill-opacity:1;" d="M 197.101562 193.191406 L 178.019531 193.191406 L 178.019531 183 L 197.101562 183 Z M 179.945312 191.265625 L 195.214844 191.265625 L 195.214844 184.925781 L 179.945312 184.925781 Z M 179.945312 191.265625 "/>
<path style=" stroke:none;fill-rule:nonzero;fill:rgb(20.388794%,10.5896%,2.749634%);fill-opacity:1;" d="M 178.980469 187.894531 L 196.179688 187.894531 L 196.179688 189.421875 L 178.980469 189.421875 Z M 178.980469 187.894531 "/>
<path style=" stroke:none;fill-rule:nonzero;fill:rgb(89.7995%,67.449951%,13.729858%);fill-opacity:1;" d="M 212.011719 225.890625 L 163.109375 225.890625 L 163.109375 223.523438 C 163.109375 221.515625 164.753906 219.871094 166.757812 219.871094 L 208.363281 219.871094 C 210.367188 219.871094 212.011719 221.515625 212.011719 223.523438 Z M 212.011719 225.890625 "/>
<path style=" stroke:none;fill-rule:nonzero;fill:rgb(20.388794%,10.5896%,2.749634%);fill-opacity:1;" d="M 196.136719 187.375 L 204.597656 187.375 L 204.597656 189.980469 L 196.136719 189.980469 Z M 196.136719 187.375 "/>
<path style=" stroke:none;fill-rule:nonzero;fill:rgb(20.388794%,10.5896%,2.749634%);fill-opacity:1;" d="M 205.398438 190.742188 L 195.417969 190.742188 L 195.417969 186.570312 L 205.398438 186.570312 Z M 196.898438 189.21875 L 203.835938 189.21875 L 203.835938 188.136719 L 196.898438 188.136719 Z M 196.898438 189.21875 "/>
<g clip-path="url(#clip28)" clip-rule="nonzero">
<use xlink:href="#surface44" transform="matrix(1,0,0,1,144,232)" mask="url(#mask13)"/>
</g>
<g clip-path="url(#clip31)" clip-rule="nonzero">
<use xlink:href="#surface47" transform="matrix(1,0,0,1,144,225)" mask="url(#mask14)"/>
</g>
<use xlink:href="#surface50" transform="matrix(1,0,0,1,197,219)" mask="url(#mask15)"/>
<path style=" stroke:none;fill-rule:nonzero;fill:rgb(20.388794%,10.5896%,2.749634%);fill-opacity:1;" d="M 213.175781 227.054688 L 161.945312 227.054688 L 161.945312 223.523438 C 161.945312 220.875 164.109375 218.707031 166.757812 218.707031 L 208.363281 218.707031 C 211.007812 218.707031 213.175781 220.875 213.175781 223.523438 Z M 164.273438 224.726562 L 210.847656 224.726562 L 210.847656 223.480469 C 210.847656 222.117188 209.726562 220.996094 208.363281 220.996094 L 166.757812 220.996094 C 165.394531 220.996094 164.273438 222.117188 164.273438 223.480469 Z M 164.273438 224.726562 "/>
<g clip-path="url(#clip36)" clip-rule="nonzero">
<path style=" stroke:none;fill-rule:nonzero;fill:rgb(20.388794%,10.5896%,2.749634%);fill-opacity:1;" d="M 232.933594 237.765625 L 142.183594 237.765625 L 142.183594 229.421875 C 142.183594 226.730469 144.351562 224.566406 147.035156 224.566406 L 228.085938 224.566406 C 230.769531 224.566406 232.933594 226.730469 232.933594 229.421875 Z M 144.871094 235.078125 L 230.25 235.078125 L 230.25 229.421875 C 230.25 228.214844 229.289062 227.253906 228.085938 227.253906 L 147.035156 227.253906 C 145.832031 227.253906 144.871094 228.214844 144.871094 229.421875 Z M 144.871094 235.078125 "/>
</g>
<path style=" stroke:none;fill-rule:nonzero;fill:rgb(89.7995%,67.449951%,13.729858%);fill-opacity:1;" d="M 218.984375 191.386719 L 204.636719 191.386719 L 204.636719 186.011719 L 218.984375 186.011719 C 220.46875 186.011719 221.671875 187.214844 221.671875 188.699219 C 221.671875 190.140625 220.46875 191.386719 218.984375 191.386719 Z M 218.984375 191.386719 "/>
<path style=" stroke:none;fill-rule:nonzero;fill:rgb(20.388794%,10.5896%,2.749634%);fill-opacity:1;" d="M 218.984375 192.148438 L 203.875 192.148438 L 203.875 185.207031 L 218.984375 185.207031 C 220.910156 185.207031 222.433594 186.773438 222.433594 188.65625 C 222.433594 190.582031 220.871094 192.148438 218.984375 192.148438 Z M 205.398438 190.582031 L 218.984375 190.582031 C 220.027344 190.582031 220.910156 189.699219 220.910156 188.65625 C 220.910156 187.613281 220.027344 186.730469 218.984375 186.730469 L 205.398438 186.730469 Z M 205.398438 190.582031 "/>
<path style=" stroke:none;fill-rule:nonzero;fill:rgb(20.388794%,10.5896%,2.749634%);fill-opacity:1;" d="M 207.882812 185.96875 L 209.046875 185.96875 L 209.046875 191.265625 L 207.882812 191.265625 Z M 207.882812 185.96875 "/>
<path style=" stroke:none;fill-rule:nonzero;fill:rgb(20.388794%,10.5896%,2.749634%);fill-opacity:1;" d="M 151.042969 230.785156 C 151.042969 231.015625 150.960938 231.214844 150.796875 231.378906 C 150.632812 231.542969 150.433594 231.625 150.203125 231.625 C 149.96875 231.625 149.769531 231.542969 149.605469 231.378906 C 149.441406 231.214844 149.359375 231.015625 149.359375 230.785156 C 149.359375 230.550781 149.441406 230.351562 149.605469 230.1875 C 149.769531 230.023438 149.96875 229.941406 150.203125 229.941406 C 150.433594 229.941406 150.632812 230.023438 150.796875 230.1875 C 150.960938 230.351562 151.042969 230.550781 151.042969 230.785156 Z M 151.042969 230.785156 "/>
<path style=" stroke:none;fill-rule:nonzero;fill:rgb(20.388794%,10.5896%,2.749634%);fill-opacity:1;" d="M 226.441406 230.785156 C 226.441406 230.996094 226.367188 231.175781 226.21875 231.324219 C 226.070312 231.472656 225.890625 231.546875 225.679688 231.546875 C 225.46875 231.546875 225.289062 231.472656 225.140625 231.324219 C 224.992188 231.175781 224.917969 230.996094 224.917969 230.785156 C 224.917969 230.574219 224.992188 230.394531 225.140625 230.246094 C 225.289062 230.097656 225.46875 230.023438 225.679688 230.023438 C 225.890625 230.023438 226.070312 230.097656 226.21875 230.246094 C 226.367188 230.394531 226.441406 230.574219 226.441406 230.785156 Z M 226.441406 230.785156 "/>
<path style=" stroke:none;fill-rule:nonzero;fill:rgb(80.389404%,79.219055%,70.588684%);fill-opacity:1;" d="M 190.886719 219.46875 L 184.191406 219.46875 C 178.179688 219.46875 173.332031 214.617188 173.332031 208.597656 L 173.332031 199.972656 L 201.75 199.972656 L 201.75 208.597656 C 201.789062 214.617188 196.898438 219.46875 190.886719 219.46875 Z M 190.886719 219.46875 "/>
<path style=" stroke:none;fill-rule:nonzero;fill:rgb(80.389404%,79.219055%,70.588684%);fill-opacity:1;" d="M 204.4375 214.175781 L 201.148438 214.175781 L 201.148438 208.796875 L 204.4375 208.796875 C 205.035156 208.796875 205.558594 208.558594 205.957031 208.15625 C 206.398438 207.714844 206.601562 207.195312 206.601562 206.589844 C 206.601562 205.386719 205.636719 204.425781 204.4375 204.425781 L 201.46875 204.425781 L 201.46875 199.050781 L 204.4375 199.050781 C 208.605469 199.050781 212.011719 202.460938 212.011719 206.632812 C 212.011719 208.636719 211.210938 210.5625 209.808594 211.96875 C 208.363281 213.371094 206.480469 214.175781 204.4375 214.175781 Z M 204.4375 214.175781 "/>
<path style=" stroke:none;fill-rule:nonzero;fill:rgb(20.388794%,10.5896%,2.749634%);fill-opacity:1;" d="M 204.4375 200.933594 C 207.5625 200.933594 210.085938 203.460938 210.085938 206.589844 C 210.085938 208.117188 209.484375 209.519531 208.445312 210.605469 C 207.402344 211.6875 205.957031 212.25 204.476562 212.25 L 203.113281 212.25 L 203.113281 210.722656 L 204.476562 210.722656 C 205.558594 210.722656 206.601562 210.28125 207.363281 209.519531 C 208.125 208.71875 208.5625 207.714844 208.5625 206.589844 C 208.5625 204.34375 206.71875 202.5 204.476562 202.5 L 203.433594 202.5 L 203.433594 200.976562 L 204.4375 200.976562 M 204.4375 199.007812 L 201.46875 199.007812 L 201.46875 204.386719 L 204.4375 204.386719 C 205.636719 204.386719 206.601562 205.347656 206.601562 206.550781 C 206.601562 207.113281 206.359375 207.675781 205.957031 208.117188 C 205.558594 208.515625 204.996094 208.757812 204.4375 208.757812 L 201.148438 208.757812 L 201.148438 214.132812 L 204.4375 214.132812 C 206.480469 214.132812 208.363281 213.332031 209.765625 211.925781 C 211.210938 210.484375 211.972656 208.597656 211.972656 206.589844 C 212.011719 202.417969 208.605469 199.007812 204.4375 199.007812 Z M 204.4375 199.007812 "/>
<use xlink:href="#surface53" transform="matrix(1,0,0,1,191,199)" mask="url(#mask16)"/>
<path style=" stroke:none;fill-rule:nonzero;fill:rgb(20.388794%,10.5896%,2.749634%);fill-opacity:1;" d="M 173.371094 203.019531 L 202.109375 203.019531 L 202.109375 204.183594 L 173.371094 204.183594 Z M 173.371094 203.019531 "/>
<path style=" stroke:none;fill-rule:nonzero;fill:rgb(20.388794%,10.5896%,2.749634%);fill-opacity:1;" d="M 190.886719 220.433594 L 184.191406 220.433594 C 177.660156 220.433594 172.367188 215.136719 172.367188 208.597656 L 172.367188 199.007812 L 202.710938 199.007812 L 202.710938 208.597656 C 202.753906 215.136719 197.421875 220.433594 190.886719 220.433594 Z M 174.332031 200.933594 L 174.332031 208.597656 C 174.332031 214.054688 178.78125 218.507812 184.234375 218.507812 L 190.925781 218.507812 C 196.378906 218.507812 200.828125 214.054688 200.828125 208.597656 L 200.828125 200.933594 Z M 174.332031 200.933594 "/>
<path style=" stroke:none;fill-rule:nonzero;fill:rgb(20.388794%,10.5896%,2.749634%);fill-opacity:1;" d="M 186.636719 145.6875 L 188.160156 145.6875 L 188.160156 172.367188 L 186.636719 172.367188 Z M 186.636719 145.6875 "/>
</g>
</svg>
